<svg xmlns="http://www.w3.org/2000/svg" width="40.477" height="24.286" viewBox="0 0 40.477 24.286">
    <path d="M33.475,16.35a12.1,12.1,0,0,0-8.1,3.094,12.143,12.143,0,1,0,0,18.1,12.142,12.142,0,1,0,8.1-21.191ZM13.79,31.549l.922-4.843-2.191,4.843H11.138l-.231-4.843-.922,4.843H8.6l1.153-6.342h2.422l.115,3.921,1.73-3.921h2.537l-1.269,6.342h-1.5Zm7.034-2.768-.346,1.845v.346l-.115.231v.346H19.095v-.577a1.8,1.8,0,0,1-1.615.692q-1.384,0-1.384-1.5,0-1.96,2.653-1.96a1.638,1.638,0,0,1,.692.115v-.346c0-.306-.308-.461-.922-.461a3.979,3.979,0,0,0-1.269.115h-.231l-.115.115.115-1.153a6.8,6.8,0,0,1,1.845-.346q2.076,0,2.075,1.5a5.426,5.426,0,0,1-.115,1.038Zm4.613,2.652a6.431,6.431,0,0,1-1.5.231q-2.654,0-2.652-2.306,0-3.114,2.652-3.113,2.076,0,2.075,1.845a5.558,5.558,0,0,1-.115,1.269H22.785v.231c0,.616.422.922,1.269.922a3.568,3.568,0,0,0,1.615-.346l-.231,1.268Zm4.612-3.921H28.9q-.692,0-.692.346t.692.577a1.554,1.554,0,0,1,1.038,1.5q0,1.73-2.422,1.73h-.346a1.05,1.05,0,0,0-.461-.115h-.461l-.231-.115H25.9l.231-1.153a11.173,11.173,0,0,0,1.384.231q.922,0,.922-.461c0-.231-.231-.422-.692-.577q-1.271-.576-1.269-1.5,0-1.73,2.422-1.73c.076,0,.288.019.634.058a7.246,7.246,0,0,0,.749.058l-.231,1.153ZM32.7,31.433a6.834,6.834,0,0,1-1.153.231A1.019,1.019,0,0,1,30.4,30.511v-.461l.115-.461v-.461l.807-3.921h1.5l-.231,1.153h.807l-.231,1.269h-.807l-.346,2.191a.333.333,0,0,0-.115.231c0,.231.191.346.577.346a.667.667,0,0,0,.461-.115L32.7,31.433Zm2.075.116H33.163l.922-5.189h1.5l-.231.807a1.906,1.906,0,0,1,1.384-.807h.346l.115.115-.577,1.384h-.346q-.807,0-1.5,3.69Zm7.265-2.307a2.643,2.643,0,0,1-3,2.422q-2.538,0-2.537-2.422a2.9,2.9,0,0,1,.865-2.133,3.042,3.042,0,0,1,2.249-.865q2.422,0,2.422,2.306v.692ZM17.6,30.049c0,.308.191.461.577.461q1.038,0,1.038-1.269h-.346C18.017,29.242,17.6,29.513,17.6,30.049Zm7.035-1.96a.612.612,0,0,0-.692-.692,1.03,1.03,0,0,0-1.038.922h1.73v-.23Zm14.991-.577q-1.271,0-1.269,1.73,0,1.154.807,1.153.922,0,1.269-1.269V28.55c0-.692-.271-1.038-.807-1.038Z"
          transform="translate(-5.141 -16.35)"/>
</svg>
