<svg xmlns="http://www.w3.org/2000/svg" width="22.615" height="21" viewBox="0 0 22.615 21"><path d="M24.007,10.644H16.582L14.325,3.91a.818.818,0,0,0-1.535,0l-2.256,6.734H3.058a.81.81,0,0,0-.808.808.594.594,0,0,0,.015.136.776.776,0,0,0,.338.57l6.1,4.3L6.364,23.27a.81.81,0,0,0,.278.909.781.781,0,0,0,.454.2.99.99,0,0,0,.5-.182l5.957-4.245,5.957,4.245a.946.946,0,0,0,.5.182.725.725,0,0,0,.449-.2.8.8,0,0,0,.278-.909L18.4,16.46l6.053-4.341.146-.126a.847.847,0,0,0,.262-.54A.855.855,0,0,0,24.007,10.644Zm-2.393,1.777-4.028,2.893a1.418,1.418,0,0,0-.515,1.605l1.519,4.427a.2.2,0,0,1-.308.232l-3.907-2.787-.005-.005a1.882,1.882,0,0,1-.813-1.54V6.671a.1.1,0,0,1,.192-.03h0l1.494,4.452a1.412,1.412,0,0,0,1.338.964h4.912A.2.2,0,0,1,21.614,12.421Z" transform="translate(-2.25 -3.375)" fill="#eb955c"/></svg>