<svg xmlns="http://www.w3.org/2000/svg" width="41" height="24.372" viewBox="0 0 41 24.372"><path d="M8.729,28.958H25.812l1.936-1.936h6.264L28.66,32.945H8.729Zm14.5-4.143L19.549,28.6h6.023l1.992-1.936H34.8L32.944,28.8h10.22V24.815Zm20.455-8.157H8.392a2.855,2.855,0,0,0-2.852,2.859V38.172a2.855,2.855,0,0,0,2.852,2.859h35.3a2.855,2.855,0,0,0,2.852-2.859V19.517A2.856,2.856,0,0,0,43.688,16.658Zm2.154,21.525a2.25,2.25,0,0,1-2.25,2.25H8.488a2.25,2.25,0,0,1-2.25-2.25V19.506a2.25,2.25,0,0,1,2.25-2.25h35.1a2.25,2.25,0,0,1,2.25,2.25V38.183ZM11.43,18.388a1.491,1.491,0,0,1,1.124,1.464,1.319,1.319,0,0,1-.368.886l-.1.106a1.384,1.384,0,0,1,.595,1.8,1.411,1.411,0,0,1-1.281.874,1.467,1.467,0,0,0-.187-.023c-.738,0-1.476,0-2.214,0-.154,0-.165-.01-.165-.162q0-2.46,0-4.92,1.209,0,2.418,0a1.529,1.529,0,0,0,.173-.022Zm-1.193,1.006q0,.487-.006.973s.005.007.008.011c.182,0,.364,0,.546-.005a.389.389,0,0,0,.4-.328.514.514,0,0,0-.191-.522.868.868,0,0,0-.753-.129Zm-.008,3.089a5.668,5.668,0,0,0,.676.009.466.466,0,0,0,.439-.473.505.505,0,0,0-.377-.535,4.584,4.584,0,0,0-.738-.011.447.447,0,0,0-.024.1q0,.426,0,.851c0,.019.018.037.028.056Zm13.394-.667a1.841,1.841,0,0,1,1.409-1.777,1.98,1.98,0,0,1,2.264.972,1.782,1.782,0,0,1-1.024,2.515,2.087,2.087,0,0,1-.57.094,2.269,2.269,0,0,1-.661-.039A1.825,1.825,0,0,1,23.623,21.815Zm1.253-.017a.684.684,0,0,0,.678.735.71.71,0,0,0,.719-.69.675.675,0,0,0-.7-.725.639.639,0,0,0-.7.68ZM16.3,23.547c-.328,0-.656.007-.984,0-.048,0-.1-.042-.173-.077a2.1,2.1,0,0,1-.811.176,1.726,1.726,0,0,1-.951-.187.863.863,0,0,1-.435-.875,1.318,1.318,0,0,1,1.123-1.25,6.625,6.625,0,0,1,.74-.111c.041-.006.089.005.12-.014.059-.035.132-.077.154-.134.013-.033-.062-.1-.1-.151-.039-.023-.078-.065-.117-.066-.181,0-.364,0-.545.012a.412.412,0,0,0-.128.055c-.208.046-.416.086-.622.139-.122.031-.239.083-.378.132.018-.115.032-.215.05-.314.032-.174.069-.347.1-.521.014-.08.046-.137.13-.151.231-.038.461-.077.692-.11a3.461,3.461,0,0,1,.51-.051,2.517,2.517,0,0,1,1.16.254,1,1,0,0,1,.566.677.328.328,0,0,0-.024.087c0,.753,0,1.506,0,2.258a.71.71,0,0,1-.078.219Zm-1.128-1.259a1.128,1.128,0,0,0,0-.19c-.005-.03-.045-.078-.069-.078a1,1,0,0,0-.774.269.355.355,0,0,0-.062.416.44.44,0,0,0,.4.184.531.531,0,0,0,.511-.6Zm19.771,1.339a3.247,3.247,0,0,1-.476-.158.8.8,0,0,1-.461-.719,1.165,1.165,0,0,1,.5-1.125,2.248,2.248,0,0,1,.628-.285,6.109,6.109,0,0,1,.78-.115c.018,0,.036,0,.054,0,.092-.017.191-.044.2-.154s-.093-.138-.172-.139a4.73,4.73,0,0,0-.759.019c-.33.049-.653.143-.989.219.032-.177.068-.371.1-.566.012-.067.032-.134.038-.2a.2.2,0,0,1,.162-.2,3.67,3.67,0,0,1,2.032-.018,1.248,1.248,0,0,1,.691.437,2.271,2.271,0,0,1,.178.363.4.4,0,0,0-.032.109q0,1.122.011,2.244a.213.213,0,0,1-.11.214c-.308,0-.615.007-.923,0a.54.54,0,0,1-.171-.072l-.577.148c-.215-.01-.43-.02-.645-.027-.02,0-.04.018-.06.028Zm.41-.879a.362.362,0,0,0,.485.112.515.515,0,0,0,.387-.615.517.517,0,0,1,0-.109c.007-.086-.029-.138-.117-.118a2.465,2.465,0,0,0-.52.137.418.418,0,0,0-.235.593Zm-18.615.8a1,1,0,0,1-.024-.158q0-1.557,0-3.114c0-.173,0-.173.175-.173h.942c.161,0,.161,0,.17.164,0,.018.005.036.011.075l.144-.085a1.36,1.36,0,0,1,1.746.208,1.225,1.225,0,0,1,.328.846c.006.71,0,1.42,0,2.13a.488.488,0,0,1-.023.1.216.216,0,0,0-.069-.028c-.28,0-.559-.007-.839,0a.982.982,0,0,0-.184.037h-.028a.737.737,0,0,1-.077-.219c-.007-.53,0-1.061-.005-1.591a1.285,1.285,0,0,0-.028-.185.5.5,0,0,0-.359-.434A.524.524,0,0,0,18,21.4c-.1.011-.082.089-.08.153s.018.136.018.2c0,.469,0,.938,0,1.407,0,.111-.015.221-.022.325-.058,0-.105,0-.151,0-.222.008-.444.012-.666.026-.121.009-.248-.04-.362.035ZM27.751,20.1c.369,0,.737,0,1.106-.005.084,0,.13.028.126.119,0,.031,0,.063.007.117l.217-.119a1.39,1.39,0,0,1,1.675.216,1.189,1.189,0,0,1,.338.685,1.467,1.467,0,0,0-.023.187c0,.669,0,1.338,0,2.008a1.113,1.113,0,0,1-.052.235c-.35,0-.7,0-1.051.008-.118,0-.12-.064-.12-.148q0-.73,0-1.46c0-.127,0-.255,0-.382a.455.455,0,0,0-.415-.462.507.507,0,0,0-.53.3c-.018.042-.03.086-.044.129a1,1,0,0,0-.024.158q0,.931,0,1.862H27.778a2.053,2.053,0,0,1-.024-.228q0-1.606,0-3.214Zm3.664.657c0-.182,0-.364-.007-.546,0-.091.037-.115.122-.117.293-.008.293-.011.293-.312,0-.146-.006-.292,0-.437a.179.179,0,0,1,.073-.128c.385-.205.775-.4,1.163-.6.007,0,.017,0,.04,0,0,.037.009.075.009.113,0,.41,0,.82,0,1.229,0,.107.031.146.14.141.154-.008.31,0,.464,0,.062,0,.106.013.105.09,0,.273,0,.545,0,.844h-.672a.784.784,0,0,0-.038.167c0,.281,0,.562,0,.842,0,.154,0,.308,0,.462,0,.027-.027.1.057.058.164.147.34.088.515.029a.126.126,0,0,1,.093.166.686.686,0,0,0,0,.23.379.379,0,0,1-.266.464.563.563,0,0,0-.126.11,1.283,1.283,0,0,1-.966-.03.95.95,0,0,1-.594-.914c-.005-.5,0-1,0-1.5-.082-.01-.164-.027-.246-.029s-.127-.018-.124-.115A1.01,1.01,0,0,0,31.416,20.762Zm11.236,1.826a.47.47,0,0,0,.466.009.13.13,0,0,1,.105.15c0,.045,0,.091,0,.136a1.09,1.09,0,0,1-.053.506,1.277,1.277,0,0,1-.911.236.991.991,0,0,1-.892-.61,1.119,1.119,0,0,1-.076-.411c-.009-.441,0-.881,0-1.322a.89.89,0,0,0-.033-.168,2.255,2.255,0,0,0-.24-.024c-.094,0-.144-.03-.142-.133,0-.235,0-.471,0-.706,0-.049.05-.1.077-.145.018,0,.036-.005.054-.006.282-.008.282-.008.282-.285,0-.15,0-.3,0-.449a.159.159,0,0,1,.094-.164c.315-.161.628-.325.942-.489.188.015.188.015.189.219,0,.335,0,.669,0,1a.89.89,0,0,0,.034.168h.675q0,.463,0,.926l-.617,0a.723.723,0,0,0-.039.152c0,.176,0,.353,0,.53,0,.258,0,.516,0,.774,0,.048-.03.139.083.1Zm-2-1.249a2,2,0,0,0-.25-.127,1.332,1.332,0,0,0-1.008-.039.72.72,0,0,0-.454.776.461.461,0,0,0,.209.347,1.38,1.38,0,0,0,1.379.039c.037-.016.071-.037.117-.062a.412.412,0,0,1,.014.072c0,.3,0,.6,0,.9a.146.146,0,0,1-.087.152,2.038,2.038,0,0,1-2.763-.915,1.766,1.766,0,0,1,1.229-2.412,2.545,2.545,0,0,1,1.461.089.215.215,0,0,1,.161.244c-.01.268,0,.537,0,.805,0,.04,0,.079-.007.13ZM23.3,21.275a1.41,1.41,0,0,0-.99-.153.749.749,0,0,0-.608.578.53.53,0,0,0,.13.507.822.822,0,0,0,.549.273,1.9,1.9,0,0,0,.795-.081l.194-.03c0,.059.008.108.008.157,0,.2.006.409,0,.613a1.437,1.437,0,0,1-.052.248,1.878,1.878,0,0,1-1.2.207,1.765,1.765,0,0,1-.937-.371c-.085-.1-.167-.2-.257-.3a1.029,1.029,0,0,0-.152-.113,1.61,1.61,0,0,1-.31-1.209,1.714,1.714,0,0,1,1.474-1.565,2.177,2.177,0,0,1,1.383.159.99.99,0,0,1,.05.208c.007.231.008.461,0,.692a.543.543,0,0,1-.075.176ZM8.839,18.411q0,2.46,0,4.92c0,.153.01.162.164.162.738,0,1.476,0,2.214,0a1.453,1.453,0,0,1,.187.023l-2.513,0a.679.679,0,0,1-.075-.01c0-.054-.007-.1-.007-.151q0-2.424,0-4.848a.95.95,0,0,1,.026-.153c0,.017,0,.035,0,.052Zm7.9,5.133c.114-.075.241-.026.362-.034.221-.014.444-.018.666-.026.046,0,.093,0,.151,0,.008-.1.022-.214.022-.325q0-.7,0-1.407c0-.068-.016-.136-.018-.2s-.022-.142.08-.153a1.539,1.539,0,0,0-.028.214c0,.592,0,1.185,0,1.777,0,.165,0,.167-.167.166-.355,0-.711,0-1.066-.007ZM27.751,20.1q0,1.607,0,3.214a2.054,2.054,0,0,0,.024.228.393.393,0,0,1-.052-.13c0-.449,0-.9,0-1.348q0-.912,0-1.824a.756.756,0,0,1,.026-.14Zm9.568,3.443a.213.213,0,0,0,.11-.214q-.01-1.122-.011-2.244a.388.388,0,0,1,.032-.109c0,.34.009.68.01,1.021,0,.454,0,.908,0,1.361v.176l-.142.009Zm-21.02,0a.728.728,0,0,0,.078-.219c0-.752,0-1.505,0-2.258a.345.345,0,0,1,.024-.087c0,.081.013.163.013.244q0,1.09,0,2.179c0,.08.008.165-.117.141Zm17.085.014a.552.552,0,0,1,.126-.11.378.378,0,0,0,.266-.464.686.686,0,0,1,0-.23.126.126,0,0,0-.093-.166l.135-.087c0,.285,0,.545,0,.805,0,.027-.036.063-.063.077-.12.061-.244.116-.367.174Zm-2.243-.014a1.138,1.138,0,0,0,.052-.235c0-.669,0-1.338,0-2.008a1.467,1.467,0,0,1,.023-.187q0,1.165.006,2.33c0,.058,0,.113-.084.1Zm-12.165-2a1.286,1.286,0,0,1,.028.185c0,.53,0,1.061.005,1.591a.737.737,0,0,0,.077.219c-.113.022-.112-.049-.112-.128,0-.623,0-1.245,0-1.867Zm9.979,2q0-.931,0-1.862a1.066,1.066,0,0,1,.024-.158q0,.961,0,1.922a.371.371,0,0,1-.027.1ZM42.548,20.1a.888.888,0,0,1-.034-.168c0-.335,0-.669,0-1,0-.2,0-.2-.189-.219l.225-.124V20.1Zm.1,2.483c-.113.04-.083-.051-.083-.1,0-.258,0-.516,0-.774,0-.177,0-.353,0-.53a.691.691,0,0,1,.039-.152c0,.458-.006.915,0,1.373A.682.682,0,0,0,42.652,22.588Zm-9.484-.025c-.084.045-.056-.03-.057-.058,0-.154,0-.308,0-.462,0-.281,0-.562,0-.842a.814.814,0,0,1,.038-.167c0,.466,0,.931,0,1.4a.772.772,0,0,0,.023.133Zm7.784-2.457c-.027.048-.075.1-.077.145-.008.235,0,.471,0,.706,0,.1.048.133.142.133a2.256,2.256,0,0,1,.24.024h-.41v-.388c0-.172,0-.344,0-.516,0-.083.028-.118.111-.1ZM23.324,23.387a1.484,1.484,0,0,0,.052-.248c.008-.2,0-.409,0-.613,0-.049-.005-.1-.008-.157l-.194.03.233-.136v.247c0,.244,0,.487,0,.731,0,.069-.007.126-.085.146ZM23.3,21.275a.551.551,0,0,0,.076-.176c.009-.23.008-.461,0-.692a.988.988,0,0,0-.05-.208c.027.036.078.072.079.109.006.338,0,.676,0,1.039l-.109-.073Zm-4.184,2.272a.945.945,0,0,1,.184-.037c.279,0,.559,0,.839,0a.21.21,0,0,1,.069.028l-1.092,0Zm-4.92-2.62a.423.423,0,0,1,.128-.055c.181-.01.364-.015.545-.012.039,0,.078.043.117.066h-.79Zm28.974,2.462a1.09,1.09,0,0,0,.053-.506c0-.045,0-.091,0-.136a.13.13,0,0,0-.105-.15l.131-.085c0,.277,0,.536,0,.794,0,.028-.05.055-.076.082Zm-22.39-.574a1.093,1.093,0,0,1,.152.113c.09.094.172.2.257.3l-.41-.409Zm14.164.812c.02-.01.041-.028.06-.028.215.007.43.018.645.027h-.705Zm8.28-2.6q0-.463,0-.926c.009.015.025.029.025.045q0,.419,0,.838c0,.015-.016.029-.024.044Zm-11.807-.269a1.042,1.042,0,0,1,.036.213c0,.1.043.112.124.115s.163.019.246.029c-.1,0-.2,0-.3,0-.084,0-.114-.033-.11-.113S31.415,20.844,31.416,20.762Zm-21.186.71q0,.5,0,1.01c-.01-.019-.028-.037-.028-.056,0-.284,0-.567,0-.851a.444.444,0,0,1,.024-.1Zm.008-2.079q0,.492,0,.985s-.008-.007-.008-.011Q10.234,19.881,10.237,19.394Zm25.115,3.354a.589.589,0,0,0,.485.112A.363.363,0,0,1,35.352,22.748Zm-23.1,16.489a1.225,1.225,0,0,1-.023-.171q0-1.262,0-2.525a.282.282,0,0,0-.032-.14l-.989,1.4c-.039-.05-.07-.087-.1-.125q-.44-.625-.878-1.25a.549.549,0,0,0-.055-.058.615.615,0,0,0-.028.125q0,1.372,0,2.743c-.4,0-.8,0-1.2.006-.091,0-.117-.038-.117-.123q-.008-1.254-.019-2.509a.752.752,0,0,0,.024-.132q0-1.072,0-2.143a.632.632,0,0,0-.028-.13,1.122,1.122,0,0,1,.147-.018c.359,0,.719,0,1.079,0a.236.236,0,0,1,.223.12c.28.415.566.826.85,1.238.028.041.058.08.1.137.048-.068.09-.125.13-.183.271-.394.543-.787.81-1.183a.25.25,0,0,1,.233-.127c.369.006.738,0,1.106,0,.1,0,.14.033.138.135-.012.782-.021,1.565-.03,2.348a.344.344,0,0,0-.051.117c-.005.35-.006.7-.006,1.051,0,.41,0,.819,0,1.229,0,.093-.031.125-.129.122-.318-.007-.637,0-.956,0-.159,0-.17,0-.171-.155q0-1.181,0-2.362c0-.058.019-.116.023-.174,0-.018-.018-.038-.028-.056l-.027.007q0,1.4,0,2.793Zm28.565,0-1.023.007c-.068,0-.1-.026-.1-.1,0-.036,0-.073,0-.109q0-2.326,0-4.652c0-.2,0-.2.194-.2.3,0,.6,0,.9,0a1.217,1.217,0,0,1,.158.022.233.233,0,0,0-.024.072q0,.764,0,1.528a.857.857,0,0,0,.024.146,1.279,1.279,0,0,0,.146-.061,1.466,1.466,0,0,1,1.689.066A1.262,1.262,0,0,1,43.273,37q0,1.017,0,2.035c0,.218,0,.218-.217.2a1.143,1.143,0,0,0-.159-.024c-.222,0-.445,0-.668,0-.191,0-.211-.019-.21-.212,0-.595.008-1.189.009-1.784,0-.016-.026-.033-.041-.05-.126-.309-.3-.436-.561-.408a.527.527,0,0,0-.472.406s-.007-.007-.011-.008a.015.015,0,0,0-.011,0c0,.04-.008.081-.008.121,0,.581,0,1.162,0,1.743a.208.208,0,0,1-.109.214ZM28.439,36.37a2.524,2.524,0,0,1,1.9-2.139,3.686,3.686,0,0,1,2.105.1.5.5,0,0,1,.072.037c.008.022.013.046.023.067.026.059.076.116.077.176.009.267.007.534,0,.8a.416.416,0,0,1-.059.138,1.806,1.806,0,0,0-.7-.261,2.733,2.733,0,0,0-1.149.045,1.385,1.385,0,0,0-.965,1.168,1.571,1.571,0,0,0,1.639,1.652,2.068,2.068,0,0,0,1.154-.306.524.524,0,0,1,.075.172c.008.267,0,.535,0,.8a.577.577,0,0,0,.022.112,3.941,3.941,0,0,1-.622.263,2.958,2.958,0,0,1-2.653-.536,2.416,2.416,0,0,1-.926-1.615q0-.338,0-.677Zm7.843,2.808-1.038.006c-.014,0-.033,0-.04,0-.112-.116-.212-.015-.316.016a2.272,2.272,0,0,1-1.356.022.95.95,0,0,1-.694-1.092,1.3,1.3,0,0,1,1.091-1.155,7.6,7.6,0,0,1,.807-.114.55.55,0,0,0,.206-.054.2.2,0,0,0,.09-.148c0-.04-.069-.094-.117-.111a.765.765,0,0,0-.241-.037,3.8,3.8,0,0,0-1.508.264c-.021.009-.043.014-.091.03.022-.133.039-.249.061-.365.032-.17.063-.34.105-.507a.167.167,0,0,1,.094-.108c.261-.059.524-.108.787-.159.138.008.276.021.414.021s.249-.014.373-.022A2.169,2.169,0,0,1,35.946,36a.91.91,0,0,1,.409.647,1.348,1.348,0,0,0-.021.174c0,.713,0,1.426,0,2.139a.95.95,0,0,1-.048.22Zm-1.2-1.253c0-.326,0-.324-.325-.256a.9.9,0,0,0-.515.256.361.361,0,0,0-.068.4.469.469,0,0,0,.409.193.535.535,0,0,0,.5-.6Zm-13.067-.3a.43.43,0,0,0,.243.5,1.489,1.489,0,0,0,1.035.113c.277-.067.544-.171.815-.259.079.007.091.061.091.126,0,.164,0,.328,0,.492,0,.113.014.225.022.337a1.961,1.961,0,0,1-.823.332c-.115.026-.233.035-.349.051a.083.083,0,0,0-.024-.012q-.3-.026-.6-.048s0,.038-.005.058a1.846,1.846,0,0,1-.238-3.648,1.983,1.983,0,0,1,1.2.115,1.544,1.544,0,0,1,.864,1.288c.013.076.017.153.025.23a.794.794,0,0,0-.021.159c.007.1-.043.139-.137.137-.045,0-.091,0-.136,0q-.892,0-1.783,0a1.553,1.553,0,0,0-.187.025Zm-.057-.709h1.1a.457.457,0,0,0-.446-.434c-.419-.044-.6.115-.658.434Zm-1.935-1.207c.2,0,.391.012.586.009.108,0,.157.028.153.146-.008.237-.007.474,0,.71,0,.1-.037.128-.129.126-.181,0-.363,0-.553,0a1.1,1.1,0,0,0-.012.114q0,.628,0,1.257c0,.194.1.286.293.252a3.151,3.151,0,0,0,.384-.119.315.315,0,0,1,.014.071c0,.223.005.446,0,.669a.187.187,0,0,1-.067.134,1.435,1.435,0,0,1-1.264.183.931.931,0,0,1-.669-1.056.785.785,0,0,0,.028-.144q0-.569,0-1.137a.793.793,0,0,0-.027-.144c-.116-.008-.232-.022-.348-.023-.085,0-.122-.028-.12-.118q.006-.4,0-.8c0-.092.041-.115.123-.118.116,0,.231-.019.346-.03a1.053,1.053,0,0,0,.028-.157c0-.172,0-.343,0-.514,0-.082.006-.154.1-.18.013,0,.017-.038.025-.058l1.022-.537a.789.789,0,0,1,.05.189c0,.381,0,.762,0,1.144a.559.559,0,0,0,.029.135ZM18.37,38.469a1.248,1.248,0,0,1-.979.741,3.448,3.448,0,0,1-1.736-.112.2.2,0,0,1-.172-.232c.013-.267,0-.535,0-.835l.359.134a.107.107,0,0,0-.026.007c-.006,0-.009.011-.017.021a2.642,2.642,0,0,0,1.071.107c.038,0,.073-.054.109-.083.128-.161.111-.271-.08-.348-.15-.06-.315-.083-.472-.128a2.559,2.559,0,0,1-.374-.126.921.921,0,0,1-.4-1.34,1.228,1.228,0,0,1,.935-.618,2.967,2.967,0,0,1,1.384.158c.029.009.072.04.074.065.027.288.047.578.071.884a4.68,4.68,0,0,0-.493-.134,4.4,4.4,0,0,0-.555-.041.271.271,0,0,0-.151.051.132.132,0,0,0,.021.246,1.549,1.549,0,0,0,.3.077,1.677,1.677,0,0,1,.932.448,2.074,2.074,0,0,1,.225.351.62.62,0,0,0-.024.115c0,.109,0,.218,0,.327,0,.089,0,.177,0,.265ZM38.959,35.8c.173.026.182.035.19.2l.041.767c-.045-.013-.081-.021-.116-.034a2.213,2.213,0,0,0-.841-.151.416.416,0,0,0-.185.031.243.243,0,0,0-.116.149c0,.041.059.112.108.133a1.229,1.229,0,0,0,.276.069,1.912,1.912,0,0,1,.8.327.963.963,0,0,1,.226,1.378,1.261,1.261,0,0,1-.855.539,3.356,3.356,0,0,1-1.724-.1.266.266,0,0,1-.047-.026.251.251,0,0,1-.107-.242c0-.212,0-.424,0-.636a.3.3,0,0,1,.019-.077h.194a2.658,2.658,0,0,0,.965.151.657.657,0,0,0,.26-.066.153.153,0,0,0,.015-.283,1.362,1.362,0,0,0-.324-.132c-.182-.056-.374-.084-.549-.156a.938.938,0,0,1-.378-1.483,2.3,2.3,0,0,1,.2-.2c.1-.019.206-.037.308-.058.014,0,.022-.026.035-.037.047-.037.091-.091.144-.1a2.081,2.081,0,0,1,.439-.065,2.862,2.862,0,0,1,.453.05c.173.026.344.062.517.09.015,0,.033-.02.049-.031Zm-13.2.188a1.353,1.353,0,0,1,.7-.36.72.72,0,0,1,.56.074.244.244,0,0,1,.1.161c.009.318,0,.637,0,.956a.372.372,0,0,1-.014.068l-.158-.082a.83.83,0,0,0-1.107.271.51.51,0,0,0-.082.265c-.007.582,0,1.165,0,1.747,0,.158,0,.159-.16.159-.314,0-.628,0-.942,0-.1,0-.132-.035-.132-.135q0-1.659,0-3.317c0-.114.044-.138.144-.136.314,0,.628.006.942,0,.113,0,.16.035.148.148,0,.047,0,.1,0,.181Zm-10.447-.878a.721.721,0,0,1-1.222.266.742.742,0,0,1-.028-.93.729.729,0,0,1,.9-.16.635.635,0,0,0,.13.169.447.447,0,0,1,.2.39c0,.089.013.178.02.267Zm-.029.632a.273.273,0,0,1,.006.04q0,1.7,0,3.4l-.079,0a1.509,1.509,0,0,0,.026-.2q0-1.391,0-2.781v-.406H13.975L14,35.744l1.281,0Zm-3.027,3.5V36.443l.027-.007c.01.019.029.039.028.056,0,.058-.023.116-.023.174q0,1.181,0,2.362c0,.151.012.155.171.155.318,0,.637,0,.956,0,.1,0,.129-.029.129-.122,0-.409,0-.819,0-1.229,0-.35,0-.7.006-1.051a.344.344,0,0,1,.051-.117l0,1.151a.849.849,0,0,0-.021.133c0,.331,0,.663,0,.994.018.368.015.29-.278.294-.346,0-.692,0-1.038,0ZM38.959,35.8c-.017.011-.035.034-.049.032-.173-.028-.344-.064-.517-.09a2.8,2.8,0,0,0-.453-.05,2.084,2.084,0,0,0-.439.065c-.053.012-.1.067-.144.1-.013.01-.021.034-.035.037-.1.021-.205.04-.308.058a1.177,1.177,0,0,1,.619-.287,2.708,2.708,0,0,1,1.326.133ZM14,35.744l-.024.051c0,1.056,0,2.112,0,3.168a.959.959,0,0,0,.053.219l-.08-.025c0-.726,0-1.452,0-2.178,0-.413.005-.826.008-1.238Zm27.989,1.422c.014.017.041.033.041.05,0,.595-.007,1.189-.009,1.784,0,.192.018.211.21.212.222,0,.445,0,.668,0a1.064,1.064,0,0,1,.159.024c-.314,0-.628,0-.942.006-.108,0-.128-.044-.127-.138,0-.647,0-1.293,0-1.939Zm-31.84,2.073q0-1.372,0-2.743a.588.588,0,0,1,.028-.125q0,1.358,0,2.716a.957.957,0,0,1-.027.153Zm26.133-.059a1.046,1.046,0,0,0,.049-.22c0-.713,0-1.426,0-2.139a1.354,1.354,0,0,1,.021-.174q0,.676.006,1.351,0,.532,0,1.065c0,.054.023.131-.08.117ZM22.013,37.624A1.37,1.37,0,0,1,22.2,37.6c.595,0,1.189,0,1.783,0,.045,0,.091,0,.136,0,.094,0,.144-.032.137-.137a.788.788,0,0,1,.021-.159v.323H22.013Zm18.805,1.612a.21.21,0,0,0,.109-.214c0-.581,0-1.162,0-1.743,0-.04,0-.081.008-.121a.015.015,0,0,1,.011,0s.007.005.011.008v2.065ZM16.98,38.218c-.036.029-.071.081-.109.083a2.661,2.661,0,0,1-1.071-.107c.007-.01.011-.017.017-.021a.108.108,0,0,1,.026-.007c.255.037.509.086.765.107a1.591,1.591,0,0,0,.372-.055Zm23.971-2.262a.857.857,0,0,1-.024-.146q0-.764,0-1.528a.242.242,0,0,1,.024-.072q0,.874,0,1.746Zm-25.642-.848c-.007-.089-.016-.177-.021-.266a.447.447,0,0,0-.2-.39.636.636,0,0,1-.13-.169.662.662,0,0,1,.349.825Zm4.712.6a.614.614,0,0,1-.031-.135c0-.381,0-.762,0-1.143a.787.787,0,0,0-.05-.189c.091-.052.085.014.086.071q0,.414,0,.828c0,.189,0,.379,0,.569Zm12.533-.157a.408.408,0,0,0,.059-.138c.006-.267.008-.535,0-.8a.558.558,0,0,0-.077-.176c-.01-.021-.015-.045-.023-.067.118.03.14.109.137.224-.008.336,0,.671,0,1.037l-.093-.079Zm4.269,2.573h-.194a.3.3,0,0,0-.019.077c0,.212,0,.424,0,.636a.25.25,0,0,0,.107.242c-.1-.013-.145-.06-.142-.171.008-.281,0-.562,0-.862l.245.078ZM18.757,36.777a.784.784,0,0,1,.027.144q0,.569,0,1.137a.8.8,0,0,1-.028.144q0-.712,0-1.425Zm-4.807,2.38.08.025h1.175l.079,0a.5.5,0,0,1-.113.026c-.369,0-.738,0-1.106,0-.039,0-.076-.034-.115-.052ZM14,35.744l-.046,0a.389.389,0,0,1,.09-.022q.572,0,1.144,0a.384.384,0,0,1,.091.021l-1.28,0ZM32.64,38.936a.592.592,0,0,1-.022-.112c0-.268,0-.535,0-.8a.514.514,0,0,0-.075-.172l.1-.064v1.151Zm-14.27-.467c0-.088,0-.176,0-.263,0-.109,0-.218,0-.327a.624.624,0,0,1,.024-.115A1.134,1.134,0,0,1,18.37,38.469Zm.544-3.692c-.008.02-.013.055-.025.058-.1.026-.1.1-.1.18,0,.172,0,.343,0,.514a.948.948,0,0,1-.028.157c0-.249,0-.5-.007-.746,0-.118.085-.134.164-.164Zm-5.346,4.17c0-.332,0-.663,0-.994a.861.861,0,0,1,.021-.133c0,.331,0,.663,0,.994A.849.849,0,0,1,13.568,38.946Zm10.653-.012c-.008-.112-.019-.225-.022-.337,0-.164,0-.328,0-.492,0-.065-.012-.119-.091-.126l.114-.056v1.01Zm10.69-3.274c-.124.008-.249.022-.373.022s-.276-.014-.414-.021h.787Zm-12.49,3.655c0-.02.005-.058.005-.058q.3.022.6.048a.076.076,0,0,1,.024.012Zm6.018-2.945q0,.339,0,.677Q28.439,36.71,28.439,36.37ZM15.206,39.182H14.031a.986.986,0,0,1-.053-.219q0-1.584,0-3.168h1.257V36.2q0,1.391,0,2.781a1.591,1.591,0,0,1-.026.2Z" transform="translate(-5.541 -16.658)"/></svg>