<svg xmlns="http://www.w3.org/2000/svg" width="20.632" height="24.372" viewBox="0 0 20.632 24.372"><path d="M5.988,16.388c-.188,1.032-.935,5.842-1.155,7.2-.016.1-.054.134-.161.134H.662a.653.653,0,0,1-.65-.747L3.161,2.99a1.091,1.091,0,0,1,1.075-.908c8.185,0,8.873-.2,10.963.613,3.23,1.252,3.526,4.273,2.365,7.54-1.155,3.364-3.9,4.81-7.529,4.853-2.332.038-3.735-.376-4.047,1.3Zm13.2-7.734c-.1-.07-.134-.1-.161.07a12.578,12.578,0,0,1-.473,1.806c-2.144,6.116-8.088,5.584-10.99,5.584a.541.541,0,0,0-.586.505c-1.215,7.545-1.456,9.12-1.456,9.12a.572.572,0,0,0,.57.693H9.508a.964.964,0,0,0,.935-.8c.038-.29-.059.328.774-4.907.247-1.182.769-1.059,1.575-1.059,3.816,0,6.793-1.548,7.68-6.035C20.821,11.761,20.719,9.794,19.193,8.654Z" transform="translate(-0.006 -2.06)"/></svg>